<?xml version="1.0" standalone="no"?>
<!DOCTYPE svg PUBLIC "-//W3C//DTD SVG 20010904//EN"
 "http://www.w3.org/TR/2001/REC-SVG-20010904/DTD/svg10.dtd">
<svg version="1.0" xmlns="http://www.w3.org/2000/svg"
 width="512.000000pt" height="512.000000pt" viewBox="0 0 512.000000 512.000000"
 preserveAspectRatio="xMidYMid meet">

<g transform="translate(0.000000,512.000000) scale(0.100000,-0.100000)"
fill="#000000" stroke="none">
<path d="M2319 4875 c-589 -96 -1066 -473 -1284 -1016 -79 -196 -115 -381
-116 -589 0 -144 22 -247 92 -435 153 -405 372 -796 1082 -1932 125 -199 263
-424 307 -500 44 -76 90 -146 101 -155 12 -11 38 -18 61 -18 53 0 69 19 188
220 53 91 221 361 372 600 357 566 448 715 583 950 278 486 428 822 480 1075
19 92 21 281 5 396 -98 693 -613 1241 -1305 1389 -130 28 -437 36 -566 15z
m416 -1006 c106 -32 229 -120 301 -214 37 -49 83 -149 99 -217 71 -304 -125
-625 -430 -703 -76 -19 -214 -19 -290 0 -163 42 -310 163 -383 315 -86 179
-83 354 8 529 85 162 252 282 435 311 68 11 187 2 260 -21z"/>
</g>
</svg>
